<svg width="36" height="60" viewBox="0 0 36 60" fill="none" xmlns="http://www.w3.org/2000/svg">
<path fill-rule="evenodd" clip-rule="evenodd" d="M15.1925 1.14408C12.1633 0.475688 9.46594 -0.569822 6.29209 0.382266C5.20286 0.641074 4.11149 1.09881 3.12089 1.86802C-2.73454 6.39255 0.757613 21.5338 4.58156 26.1391C5.16927 27.4301 5.74063 28.3748 6.23166 28.6596C7.38203 29.3168 13.0073 29.3514 18.0008 29.2713C22.9924 29.3514 28.6164 29.3168 29.7675 28.6596C30.2585 28.3748 30.8311 27.4301 31.4188 26.1391C35.2435 21.5338 38.7355 6.39255 32.8763 1.86802C31.8848 1.09881 30.7949 0.641074 29.7069 0.382266C26.535 -0.569822 23.8351 0.475688 20.8059 1.14408C18.8752 1.35618 17.122 1.35618 15.1925 1.14408ZM15.6678 2.7633C15.6678 2.7633 8.38986 0.954707 5.27447 2.75464C-0.678884 6.19435 2.29717 18.7298 4.83267 23.4026C6.31057 26.1258 10.8136 27.8444 18.4821 28.0599C26.1504 28.2752 27.9089 27.2 30.0909 24.4052C34.6512 18.5645 38.0282 0.0745823 27.9096 2.40493C7.95535 7.00161 20.5122 4.34175 15.6678 2.7633Z" fill="#84CBBE"/>
<path fill-rule="evenodd" clip-rule="evenodd" d="M5.51812 32.1201C5.51812 32.1201 5.44916 30.8715 6.86913 30.6336C8.28909 30.3959 15.3882 30.7128 16.5334 30.6534C17.6786 30.5939 17.6786 30.5939 17.6786 30.5939C17.6786 30.5939 12.1134 31.8624 9.86917 32.0804C7.62496 32.2986 6.3653 32.2193 5.51812 32.1201Z" fill="#84CBBE"/>
<path fill-rule="evenodd" clip-rule="evenodd" d="M5.9303 35.2281C5.9303 35.2281 5.60971 33.7614 8.17452 33.4839C9.2163 33.3711 10.4591 33.3876 11.942 33.2734C15.6758 32.9857 23.5755 32.2796 30.4802 29.6782C30.4802 29.6782 30.4802 31.2242 29.2893 31.8982C28.0986 32.572 21.5877 33.7804 18.7368 34.2502C15.8857 34.72 11.3807 34.9307 5.9303 35.2281Z" fill="#84CBBE"/>
<path fill-rule="evenodd" clip-rule="evenodd" d="M6.34241 38.0822C6.34241 38.0822 6.02181 36.6154 8.58663 36.3378C9.62841 36.2251 10.8715 36.2415 12.3541 36.1273C16.0879 35.8398 23.071 35.4849 29.9756 32.8833C29.9756 32.8833 29.9756 34.4295 28.7848 35.1033C27.594 35.7771 21.9999 36.6345 19.1489 37.1041C16.2978 37.5739 11.7928 37.7848 6.34241 38.0822Z" fill="#84CBBE"/>
<path fill-rule="evenodd" clip-rule="evenodd" d="M6.70861 40.7781C6.70861 40.7781 6.38819 39.3115 8.95283 39.034C9.99479 38.9212 11.2379 38.9375 12.7204 38.8235C14.8495 38.6597 17.7808 38.4132 21.3515 37.827C24.0423 37.3855 27.265 36.7931 29.8378 35.6584C29.8378 35.6584 29.8378 37.2046 28.6471 37.8784C27.4562 38.5524 22.3662 39.3305 19.5151 39.8003C16.664 40.2701 12.1592 40.4807 6.70861 40.7781Z" fill="#84CBBE"/>
<path fill-rule="evenodd" clip-rule="evenodd" d="M7.21253 43.5133C7.21253 43.5133 6.89193 42.0465 9.45675 41.7689C10.4985 41.6562 11.7417 41.6724 13.2242 41.5584C18.3236 41.1665 24.5745 40.7686 29.1967 38.7305C29.1967 38.7305 29.2422 40.3266 27.9715 40.881C22.712 43.176 11.8764 43.0678 7.21253 43.5133Z" fill="#84CBBE"/>
<path fill-rule="evenodd" clip-rule="evenodd" d="M7.67052 46.1296C7.67052 46.1296 7.35009 44.663 9.91474 44.3854C10.9567 44.2727 12.1998 44.2889 13.6823 44.175C18.4688 43.807 24.3027 43.5004 28.6472 41.5847C28.6472 41.5847 28.7249 43.2393 27.4219 43.7354C22.5018 45.6086 12.0422 45.5447 7.67052 46.1296Z" fill="#84CBBE"/>
<path fill-rule="evenodd" clip-rule="evenodd" d="M8.14458 48.7259C8.14458 48.7259 8.14458 47.6397 10.2729 47.3776C12.4015 47.1154 17.6574 46.7033 20.8283 46.2913C23.9993 45.8792 25.4328 45.5795 26.4319 45.2051C27.4308 44.8305 28.039 44.3809 28.039 44.3809C28.039 44.3809 28.3877 45.0162 27.1703 46.0664C26.1996 46.9042 23.5243 47.2128 21.2436 47.5237C18.4504 47.9042 15.554 48.1524 13.0981 48.3972C11.445 48.562 8.12965 48.5368 8.14458 48.7259Z" fill="#84CBBE"/>
<path fill-rule="evenodd" clip-rule="evenodd" d="M8.59967 51.3677C8.59967 51.3677 8.59968 50.2815 10.728 50.0192C12.8565 49.757 16.4098 49.5754 19.5808 49.1633C22.7519 48.7514 24.9744 48.3542 25.9735 47.9798C26.9725 47.6054 27.5806 47.1558 27.5806 47.1558C27.5806 47.1558 27.7967 48.3199 26.284 49.028C22.5054 50.7966 15.0494 50.7784 10.4702 51.2814C9.44597 51.3939 8.59114 51.2554 8.59967 51.3677Z" fill="#84CBBE"/>
<path fill-rule="evenodd" clip-rule="evenodd" d="M9.11377 53.7645C9.11377 53.7645 9.43437 52.7143 10.9917 52.5556C12.549 52.3969 15.2512 52.2981 19.2589 51.8023C23.2668 51.3067 24.1789 50.9784 25.1904 50.6529C26.2022 50.3272 27.0455 49.8599 27.0455 49.8599C27.0455 49.8599 26.925 50.9983 26.3355 51.4257C23.9631 53.1459 14.5242 53.7248 11.6329 53.7248C10.5567 53.7248 9.34303 53.6655 9.11377 53.7645Z" fill="#84CBBE"/>
<path fill-rule="evenodd" clip-rule="evenodd" d="M9.96045 56.0435C9.96045 56.0435 10.4415 54.9933 12.3195 54.8743C16.4754 54.6109 22.0861 54.3759 25.831 52.6543C26.5639 52.3174 26.5866 52.3174 26.5866 52.3174C26.5866 52.3174 26.5822 53.5326 25.6248 53.9426C21.9409 55.5205 17.1809 55.7241 14.5097 55.8374C12.8359 55.9082 11.1103 55.9948 9.96045 56.0435Z" fill="#84CBBE"/>
<path fill-rule="evenodd" clip-rule="evenodd" d="M11.6323 58.1055C11.6323 58.1055 11.976 57.372 13.1897 57.2331C16.7536 56.8257 20.3394 56.6879 23.8616 55.727C24.8785 55.4494 25.6249 54.9736 25.6249 54.9736C25.6249 54.9736 25.5256 56.199 24.4342 56.5593C20.5106 57.855 14.7777 58.1571 11.6323 58.1055Z" fill="#84CBBE"/>
<path fill-rule="evenodd" clip-rule="evenodd" d="M13.1216 59.849C13.1216 59.849 14.0375 59.0562 16.1673 59.0165C18.2971 58.9768 20.6104 58.4616 22.2362 58.1445C23.8621 57.8273 24.2973 57.51 24.2973 57.51C24.2973 57.51 24.091 58.3622 23.0834 58.7983C22.0757 59.2346 19.8542 59.7103 18.2971 59.8687C16.7399 60.0272 14.6329 60.0669 13.1216 59.849Z" fill="#84CBBE"/>
</svg>
